<svg width="24" height="24" viewBox="0 0 24 24" fill="none" xmlns="http://www.w3.org/2000/svg">
<path fill-rule="evenodd" clip-rule="evenodd" d="M6.5 4.5C6.77614 4.5 7 4.72386 7 5V7C7 7.27614 6.77614 7.5 6.5 7.5H3.5C3.22386 7.5 3 7.27614 3 7V5C3 4.72386 3.22386 4.5 3.5 4.5H6.5ZM9.5 4.5C9.22386 4.5 9 4.72386 9 5V7C9 7.27614 9.22386 7.5 9.5 7.5H20.5C20.7761 7.5 21 7.27614 21 7V5C21 4.72386 20.7761 4.5 20.5 4.5H9.5ZM9 11C9 10.7239 9.22386 10.5 9.5 10.5H20.5C20.7761 10.5 21 10.7239 21 11V13C21 13.2761 20.7761 13.5 20.5 13.5H9.5C9.22386 13.5 9 13.2761 9 13V11ZM6.5 10.5C6.77614 10.5 7 10.7239 7 11V13C7 13.2761 6.77614 13.5 6.5 13.5H3.5C3.22386 13.5 3 13.2761 3 13V11C3 10.7239 3.22386 10.5 3.5 10.5H6.5ZM9 17C9 16.7239 9.22386 16.5 9.5 16.5H20.5C20.7761 16.5 21 16.7239 21 17V19C21 19.2761 20.7761 19.5 20.5 19.5H9.5C9.22386 19.5 9 19.2761 9 19V17ZM6.5 16.5C6.77614 16.5 7 16.7239 7 17V19C7 19.2761 6.77614 19.5 6.5 19.5H3.5C3.22386 19.5 3 19.2761 3 19V17C3 16.7239 3.22386 16.5 3.5 16.5H6.5Z" fill="white"/>
</svg>
