<svg width="30" height="30" viewBox="0 0 30 30" fill="none" xmlns="http://www.w3.org/2000/svg">
<rect width="30" height="30" rx="1.77778" fill="white"/>
<path d="M8.27175 14.7839C8.46064 14.265 9.03448 13.9974 9.55346 14.1863L14.7218 16.0674C15.2407 16.2563 15.5083 16.8301 15.3194 17.3491L11.5065 27.825C11.4535 27.9708 11.2618 28.0032 11.1637 27.8831L8.81406 25.006C8.69805 24.8639 8.51359 24.7968 8.33342 24.831L4.68413 25.5247C4.53171 25.5537 4.40578 25.4056 4.45884 25.2598L8.27175 14.7839Z" stroke="#5D5D62" stroke-width="1.33333"/>
<path d="M21.7275 14.7834C21.5386 14.2645 20.9648 13.9969 20.4458 14.1858L15.2775 16.0669C14.7585 16.2558 14.4909 16.8296 14.6798 17.3486L18.4927 27.8245C18.5458 27.9703 18.7374 28.0027 18.8356 27.8826L21.1852 25.0055C21.3012 24.8634 21.4857 24.7963 21.6658 24.8305L25.3151 25.5242C25.4676 25.5532 25.5935 25.4051 25.5404 25.2593L21.7275 14.7834Z" stroke="#5D5D62" stroke-width="1.33333"/>
<circle cx="15" cy="11.25" r="9.33333" fill="white" stroke="#5D5D62" stroke-width="1.33333"/>
<circle cx="15" cy="11.25" r="5.58333" fill="white" stroke="#5D5D62" stroke-width="1.33333"/>
</svg>
