<svg width="16" height="16" viewBox="0 0 16 16" fill="none" xmlns="http://www.w3.org/2000/svg">
<rect width="16" height="16" rx="2" fill="#2D2D31"/>
<path fill-rule="evenodd" clip-rule="evenodd" d="M4.43836 4.22864C4.17801 4.48899 4.17801 4.9111 4.43836 5.17145L7.26676 7.99984L4.4382 10.8284C4.17785 11.0887 4.17785 11.5109 4.4382 11.7712C4.69855 12.0316 5.12066 12.0316 5.38101 11.7712L8.20956 8.94265L11.038 11.7711C11.2984 12.0315 11.7205 12.0315 11.9808 11.7711C12.2412 11.5108 12.2412 11.0886 11.9808 10.8283L9.15237 7.99985L11.9807 5.17155C12.241 4.9112 12.241 4.48909 11.9807 4.22874C11.7203 3.96839 11.2982 3.96839 11.0379 4.22874L8.20957 7.05704L5.38117 4.22864C5.12082 3.96829 4.69871 3.96829 4.43836 4.22864Z" fill="white"/>
</svg>
