<svg width="28" height="28" viewBox="0 0 28 28" fill="none" xmlns="http://www.w3.org/2000/svg">
<rect width="28" height="28" rx="2.33333" fill="white"/>
<path fill-rule="evenodd" clip-rule="evenodd" d="M7.00163 4.95996C5.87405 4.95996 4.95996 5.87405 4.95996 7.00163V21.0038C4.95996 22.1313 5.87405 23.0454 7.00163 23.0454H16.5379C17.0211 23.0454 17.4129 22.6537 17.4129 22.1704C17.4129 21.6872 17.0211 21.2954 16.5379 21.2954H7.00163C6.84055 21.2954 6.70996 21.1648 6.70996 21.0038V7.00163C6.70996 6.84055 6.84054 6.70996 7.00163 6.70996H18.6683C18.8294 6.70996 18.96 6.84054 18.96 7.00163V7.93539C18.96 8.41864 19.3517 8.81039 19.835 8.81039C20.3182 8.81039 20.71 8.41864 20.71 7.93539V7.00163C20.71 5.87405 19.7959 4.95996 18.6683 4.95996H7.00163ZM10.21 9.1014C9.72671 9.1014 9.33496 9.49315 9.33496 9.9764C9.33496 10.4596 9.72671 10.8514 10.21 10.8514H16.6266C17.1099 10.8514 17.5016 10.4596 17.5016 9.9764C17.5016 9.49315 17.1099 9.1014 16.6266 9.1014H10.21ZM9.33496 13.2428C9.33496 12.7596 9.72671 12.3678 10.21 12.3678H16.6266C17.1099 12.3678 17.5016 12.7596 17.5016 13.2428C17.5016 13.7261 17.1099 14.1178 16.6266 14.1178H10.21C9.72671 14.1178 9.33496 13.7261 9.33496 13.2428ZM21.0499 11.4213L19.835 14.2184V23.2578H23.335V14.2184L22.12 11.4213C21.9168 10.9534 21.2532 10.9534 21.0499 11.4213Z" fill="#5D5D62"/>
</svg>
