<svg width="24" height="24" viewBox="0 0 24 24" fill="none" xmlns="http://www.w3.org/2000/svg">
<path fill-rule="evenodd" clip-rule="evenodd" d="M16.9726 10.1235C17.2655 10.4164 17.2655 10.8912 16.9726 11.1841L12.3769 15.7799L12.3765 15.7802L12.3764 15.7803C12.0835 16.0732 11.6086 16.0732 11.3157 15.7803L11.3047 15.769L6.71967 11.184C6.42678 10.8911 6.42678 10.4163 6.71967 10.1234C7.01256 9.83047 7.48744 9.83047 7.78033 10.1234L11 13.343L11 3.75C11 3.33579 11.3358 3 11.75 3C12.1642 3 12.5 3.33579 12.5 3.75L12.5 13.5354L15.9119 10.1235C16.2048 9.83058 16.6797 9.83058 16.9726 10.1235ZM5.75 18.3018C5.33579 18.3018 5 18.6375 5 19.0518C5 19.466 5.33579 19.8018 5.75 19.8018H18.25C18.6642 19.8018 19 19.466 19 19.0518C19 18.6375 18.6642 18.3018 18.25 18.3018H5.75Z" fill="#5D5D62"/>
</svg>
