<svg width="28" height="28" viewBox="0 0 28 28" fill="none" xmlns="http://www.w3.org/2000/svg">
<rect width="28" height="28" rx="2.33333" fill="white"/>
<path fill-rule="evenodd" clip-rule="evenodd" d="M17.6415 4.66699C16.5501 4.66699 16.0036 5.98649 16.7753 6.7582L18.4763 8.45924L13.939 13.4091C13.6124 13.7653 13.6365 14.3188 13.9927 14.6453C14.349 14.9719 14.9025 14.9478 15.229 14.5916L19.7149 9.69785L21.2428 11.2257C22.0145 11.9974 23.334 11.4509 23.334 10.3595V5.89199C23.334 5.21544 22.7855 4.66699 22.109 4.66699H17.6415ZM4.95898 7.00033C4.95898 5.87274 5.87307 4.95866 7.00065 4.95866H12.834C13.3172 4.95866 13.709 5.35041 13.709 5.83366C13.709 6.31691 13.3172 6.70866 12.834 6.70866H7.00065C6.83957 6.70866 6.70898 6.83924 6.70898 7.00033V21.0003C6.70898 21.1614 6.83957 21.292 7.00065 21.292H21.0007C21.1617 21.292 21.2923 21.1614 21.2923 21.0003V15.167C21.2923 14.6837 21.6841 14.292 22.1673 14.292C22.6506 14.292 23.0423 14.6837 23.0423 15.167V21.0003C23.0423 22.1279 22.1282 23.042 21.0007 23.042H7.00065C5.87307 23.042 4.95898 22.1279 4.95898 21.0003V7.00033Z" fill="#5D5D62"/>
</svg>
