<svg width="30" height="30" viewBox="0 0 30 30" fill="none" xmlns="http://www.w3.org/2000/svg">
<circle cx="15" cy="15" r="15" transform="rotate(-180 15 15)" fill="black"/>
<path fill-rule="evenodd" clip-rule="evenodd" d="M15.2218 21.2929C15.6124 21.6834 16.2455 21.6834 16.6361 21.2929L22.2929 15.636C22.6834 15.2455 22.6834 14.6124 22.2929 14.2218L16.6361 8.56497C16.2455 8.17445 15.6124 8.17445 15.2218 8.56497C14.8313 8.9555 14.8313 9.58866 15.2218 9.97918L20.1716 14.9289L15.2218 19.8787C14.8313 20.2692 14.8313 20.9024 15.2218 21.2929Z" fill="white"/>
<path fill-rule="evenodd" clip-rule="evenodd" d="M8.22185 21.2929C8.61237 21.6834 9.24554 21.6834 9.63606 21.2929L15.2929 15.636C15.6834 15.2455 15.6834 14.6124 15.2929 14.2218L9.63606 8.56497C9.24554 8.17445 8.61237 8.17445 8.22185 8.56497C7.83132 8.9555 7.83133 9.58866 8.22185 9.97918L13.1716 14.9289L8.22185 19.8787C7.83132 20.2692 7.83132 20.9024 8.22185 21.2929Z" fill="white"/>
</svg>
