<svg width="120" height="120" viewBox="0 0 120 120" fill="none" xmlns="http://www.w3.org/2000/svg">
<path d="M43.9099 34.5866L52.678 26.6131C53.0016 26.3189 53.4232 26.1559 53.8605 26.1559H89.8007C90.7714 26.1559 91.5583 26.9427 91.5583 27.9134V95.9567C91.5583 96.9274 90.7714 97.7143 89.8007 97.7143H33.8093C32.8387 97.7143 32.0518 96.9274 32.0518 95.9567V46.2567C32.0518 45.7648 32.2579 45.2954 32.62 44.9626L43.9099 34.5866Z" fill="#96BDDA"/>
<path d="M40.0714 31.9286L48.7764 23.6284C49.1033 23.3167 49.5376 23.1429 49.9893 23.1429H85.6709C86.6416 23.1429 87.4285 23.9297 87.4285 24.9004V95.9567C87.4285 96.9274 86.6416 97.7143 85.6709 97.7143H30.0432C29.0725 97.7143 28.2856 96.9274 28.2856 95.9567V44.0329C28.2856 43.5554 28.4799 43.0985 28.8237 42.7673L40.0714 31.9286Z" fill="#CEEAFF"/>
<path d="M49.0714 23.1429L50.0443 41.4348C50.0978 42.4407 49.2966 43.2857 48.2892 43.2857H28.2856L49.0714 23.1429Z" fill="#96BDDA"/>
<path d="M50.5713 81.2403C50.9999 76.7143 56.9999 72.427 63.857 80.5714" stroke="black" stroke-width="1.5"/>
<ellipse cx="46.9506" cy="71.1579" rx="2.57143" ry="2.57143" fill="black"/>
<path d="M69.4876 71.1579C69.4876 72.5781 68.3363 73.7293 66.9162 73.7293C65.496 73.7293 64.3447 72.5781 64.3447 71.1579C64.3447 69.7378 65.496 68.5865 66.9162 68.5865C68.3363 68.5865 69.4876 69.7378 69.4876 71.1579Z" fill="black"/>
</svg>
