<svg width="28" height="28" viewBox="0 0 28 28" fill="none" xmlns="http://www.w3.org/2000/svg">
<path fill-rule="evenodd" clip-rule="evenodd" d="M8.75 2.625C7.94459 2.625 7.29167 3.27792 7.29167 4.08333V8.45833H4.66667C3.53909 8.45833 2.625 9.37242 2.625 10.5V19.8333C2.625 20.9609 3.53908 21.875 4.66667 21.875H7.29167V23.9167C7.29167 24.7221 7.94458 25.375 8.75 25.375H19.25C20.0554 25.375 20.7083 24.7221 20.7083 23.9167V21.875H23.3333C24.4609 21.875 25.375 20.9609 25.375 19.8333V10.5C25.375 9.37242 24.4609 8.45833 23.3333 8.45833H20.7083V4.08333C20.7083 3.27792 20.0554 2.625 19.25 2.625H8.75ZM18.9583 8.45833V4.375H9.04167V8.45833H18.9583ZM20.7083 20.125H23.3333C23.4944 20.125 23.625 19.9944 23.625 19.8333V10.5C23.625 10.3389 23.4944 10.2083 23.3333 10.2083H19.25H8.75H4.66667C4.50558 10.2083 4.375 10.3389 4.375 10.5V19.8333C4.375 19.9944 4.50559 20.125 4.66667 20.125H7.29167V16.9167C7.29167 16.1113 7.94458 15.4583 8.75 15.4583L19.25 15.4583C20.0554 15.4583 20.7083 16.1113 20.7083 16.9167V20.125ZM18.9583 17.2083V23.625L9.04167 23.625L9.04167 17.2083L18.9583 17.2083ZM22.1667 12.8333C22.1667 13.4777 21.6443 14 21 14C20.3557 14 19.8333 13.4777 19.8333 12.8333C19.8333 12.189 20.3557 11.6667 21 11.6667C21.6443 11.6667 22.1667 12.189 22.1667 12.8333Z" fill="#5D5D62"/>
</svg>
