<svg width="27" height="24" viewBox="0 0 27 24" fill="none" xmlns="http://www.w3.org/2000/svg">
<path fill-rule="evenodd" clip-rule="evenodd" d="M24.8583 9.87233C25.9637 9.86671 26.8552 10.7582 26.8496 11.8636C26.8439 12.969 25.9433 13.8696 24.8379 13.8752L7.81013 13.9619L13.443 19.5948C14.2295 20.3813 14.2295 21.6564 13.4431 22.4429C12.6566 23.2294 11.3814 23.2294 10.595 22.4429L1.45835 13.3063C1.4418 13.2908 1.42545 13.275 1.40932 13.2589C0.630754 12.4803 0.630755 11.218 1.40932 10.4394L10.6095 1.23923C11.3881 0.460668 12.6504 0.460668 13.4289 1.23923C14.2075 2.01779 14.2075 3.28009 13.4289 4.05865L7.52709 9.9605L24.8583 9.87233Z" fill="#2D2D31"/>
</svg>
