<svg width="7" height="11" viewBox="0 0 7 11" fill="none" xmlns="http://www.w3.org/2000/svg">
<path fill-rule="evenodd" clip-rule="evenodd" d="M0.948263 10.6052C1.33971 10.9967 1.97438 10.9967 2.36583 10.6052L6.58176 6.38931C6.59027 6.38137 6.59867 6.37325 6.60697 6.36496C6.94866 6.02326 6.99131 5.49576 6.73491 5.10768C6.69791 5.05135 6.65465 4.99792 6.60512 4.94839C6.59677 4.94005 6.58832 4.93188 6.57976 4.92389L2.36397 0.708101C1.97354 0.317677 1.34054 0.317677 0.950115 0.708101C0.55969 1.09853 0.55969 1.73153 0.950115 2.12195L4.48205 5.65389L0.948263 9.18768C0.556813 9.57913 0.556813 10.2138 0.948263 10.6052Z" fill="#808080"/>
</svg>
