<svg width="15" height="15" viewBox="0 0 15 15" fill="none" xmlns="http://www.w3.org/2000/svg">
<path fill-rule="evenodd" clip-rule="evenodd" d="M9.06078 3.90399C10.6229 5.46609 10.6229 7.99875 9.06078 9.56085C7.49868 11.1229 4.96602 11.1229 3.40392 9.56085C1.84183 7.99875 1.84183 5.46609 3.40392 3.90399C4.96602 2.3419 7.49868 2.3419 9.06078 3.90399ZM11.1234 10.2093C12.7934 7.86609 12.5772 4.59201 10.475 2.48978C8.13185 0.146636 4.33286 0.146636 1.98971 2.48978C-0.353435 4.83293 -0.353435 8.63192 1.98971 10.9751C4.09194 13.0773 7.36602 13.2934 9.70923 11.6235L12.5963 14.5106C12.9868 14.9011 13.62 14.9011 14.0105 14.5106C14.4011 14.1201 14.401 13.4869 14.0105 13.0964L11.1234 10.2093Z" fill="#B5B5B5"/>
</svg>
