<svg width="24" height="24" viewBox="0 0 24 24" fill="none" xmlns="http://www.w3.org/2000/svg">
<path fill-rule="evenodd" clip-rule="evenodd" d="M6.65705 6.34295C6.26652 6.73348 6.26652 7.36664 6.65705 7.75717L10.8996 11.9998L6.65681 16.2426C6.26629 16.6331 6.26629 17.2663 6.65681 17.6568C7.04734 18.0473 7.6805 18.0473 8.07103 17.6568L12.3139 13.414L16.5565 17.6567C16.9471 18.0472 17.5802 18.0472 17.9708 17.6567C18.3613 17.2661 18.3613 16.633 17.9708 16.2424L13.7281 11.9998L17.9705 7.75732C18.361 7.36679 18.361 6.73363 17.9705 6.34311C17.58 5.95258 16.9468 5.95258 16.5563 6.34311L12.3139 10.5856L8.07126 6.34295C7.68073 5.95243 7.04757 5.95243 6.65705 6.34295Z" fill="#5D5D62"/>
</svg>
