<svg width="22" height="22" viewBox="0 0 22 22" fill="none" xmlns="http://www.w3.org/2000/svg">
<circle cx="11" cy="11" r="11" fill="#2D2D31"/>
<path fill-rule="evenodd" clip-rule="evenodd" d="M15.5966 6.26262C15.2061 5.8721 14.573 5.8721 14.1824 6.26262L10.9999 9.44518L7.81752 6.26284C7.427 5.87231 6.79383 5.87231 6.40331 6.26284L6.26189 6.40426C5.87136 6.79478 5.87136 7.42795 6.26189 7.81847L9.44423 11.0008L6.26283 14.1822C5.87231 14.5727 5.87231 15.2059 6.26283 15.5964L6.40426 15.7379C6.79478 16.1284 7.42795 16.1284 7.81847 15.7379L10.9999 12.5565L14.1815 15.7381C14.572 16.1286 15.2052 16.1286 15.5957 15.7381L15.7371 15.5966C16.1276 15.2061 16.1276 14.573 15.7371 14.1824L12.5555 11.0008L15.7381 7.81826C16.1286 7.42773 16.1286 6.79457 15.7381 6.40404L15.5966 6.26262Z" fill="white"/>
</svg>
