<svg width="24" height="24" viewBox="0 0 24 24" fill="none" xmlns="http://www.w3.org/2000/svg">
<path fill-rule="evenodd" clip-rule="evenodd" d="M7.5 5C7.22386 5 7 5.22386 7 5.5V18.5C7 18.7761 7.22386 19 7.5 19H8.5C8.77614 19 9 18.7761 9 18.5V5.5C9 5.22386 8.77614 5 8.5 5H7.5ZM11 5.5C11 5.22386 11.2239 5 11.5 5H12.5C12.7761 5 13 5.22386 13 5.5V18.5C13 18.7761 12.7761 19 12.5 19H11.5C11.2239 19 11 18.7761 11 18.5V5.5ZM15 5.5C15 5.22386 15.2239 5 15.5 5H16.5C16.7761 5 17 5.22386 17 5.5V18.5C17 18.7761 16.7761 19 16.5 19H15.5C15.2239 19 15 18.7761 15 18.5V5.5Z" fill="#5D5D62"/>
</svg>
