<svg width="28" height="28" viewBox="0 0 28 28" fill="none" xmlns="http://www.w3.org/2000/svg">
<path d="M14.9695 23.3332H13.0305C12.5248 23.3332 12.0982 22.971 12.0158 22.4724L11.6902 20.4978C11.4697 20.4187 11.2521 20.3285 11.0393 20.2271L9.41182 21.3934C9.01256 21.6794 8.43306 21.6311 8.08607 21.2855L6.7149 19.9143C6.35691 19.5557 6.3117 18.9979 6.60684 18.5872L7.77309 16.9611C7.67167 16.7476 7.58124 16.53 7.50242 16.3091L5.52832 15.9839C5.02867 15.9009 4.66675 15.4734 4.66675 14.9692V13.0309C4.66675 12.5242 5.02909 12.0971 5.52832 12.0154L7.50221 11.6901C7.58082 11.4701 7.67125 11.2525 7.77247 11.0395L6.60601 9.41246C6.31211 9.00073 6.35753 8.44298 6.71427 8.08581L8.08503 6.71518C8.43182 6.36796 9.01276 6.31984 9.41202 6.60649L11.0387 7.77281C11.2517 7.67138 11.4697 7.58115 11.69 7.50254L12.0154 5.52729C12.0975 5.02866 12.5242 4.6665 13.03 4.6665H14.9687C15.4743 4.6665 15.9008 5.02866 15.9835 5.52729L16.3087 7.50254C16.5294 7.58115 16.7466 7.67138 16.9602 7.77281L18.5871 6.60649C18.987 6.31984 19.5679 6.36796 19.9145 6.7156L21.2844 8.08539C21.6418 8.44236 21.6874 9.00011 21.3929 9.41163L20.2258 11.0397C20.3279 11.2535 20.4183 11.4711 20.4965 11.6903L22.4712 12.016C22.9705 12.0971 23.3334 12.5235 23.3334 13.0301V14.9684C23.3334 15.4755 22.97 15.9022 22.471 15.9833L20.4969 16.3093C20.4187 16.529 20.3285 16.7468 20.2262 16.9604L21.3937 18.5874C21.6887 18.9989 21.6424 19.5565 21.2853 19.9141L19.9145 21.2841C19.7204 21.4786 19.4615 21.5859 19.1861 21.5859C18.9706 21.5859 18.7636 21.5195 18.5877 21.3938L16.96 20.2267C16.747 20.3283 16.5298 20.4187 16.3098 20.4973L15.9837 22.4722C15.9016 22.971 15.475 23.3332 14.9695 23.3332ZM10.9956 19.1904C11.0723 19.1904 11.1495 19.2082 11.22 19.246C11.5529 19.4223 11.9015 19.5673 12.257 19.6762C12.4308 19.7301 12.5592 19.8772 12.5889 20.0562L12.9616 22.3162C12.9672 22.3502 12.996 22.3749 13.0307 22.3749H14.9697C15.0037 22.3749 15.0334 22.3506 15.0386 22.3166L15.4121 20.0562C15.4414 19.8772 15.5702 19.7301 15.7435 19.6762C16.0968 19.5677 16.446 19.4225 16.7806 19.2456C16.9405 19.1597 17.1355 19.1738 17.2838 19.2796L19.1463 20.6152C19.2002 20.6278 19.2197 20.6245 19.2367 20.6071L20.6083 19.2366C20.6321 19.2124 20.635 19.1734 20.6155 19.1452L19.2796 17.284C19.1734 17.1357 19.1602 16.9409 19.2456 16.7804C19.4234 16.4442 19.5686 16.0953 19.6762 15.7433C19.7293 15.5691 19.8759 15.4407 20.0558 15.411L22.3161 15.0379C22.3509 15.0323 22.3756 15.003 22.3756 14.9682V13.0298C22.3756 12.995 22.3505 12.9662 22.3165 12.961L20.0562 12.5882C19.8763 12.5586 19.7293 12.43 19.6762 12.256C19.5683 11.9046 19.4238 11.5555 19.2456 11.2193C19.1602 11.0589 19.1734 10.8636 19.2792 10.7159L20.6147 8.85305C20.6346 8.82546 20.6317 8.78605 20.6079 8.76241L19.2371 7.39199C19.2197 7.37477 19.201 7.37145 19.1878 7.37145L17.2838 8.71968C17.135 8.82525 16.9403 8.83853 16.7798 8.75328C16.4465 8.57635 16.098 8.43199 15.744 8.32371C15.5697 8.27103 15.4405 8.12356 15.4113 7.94352L15.0386 5.68265C15.0334 5.64884 15.0037 5.62416 14.9693 5.62416H13.0307C12.996 5.62416 12.9672 5.64884 12.9616 5.68306L12.5889 7.94414C12.5592 8.12376 12.4302 8.27124 12.2562 8.32392C11.9019 8.43261 11.5535 8.57656 11.2204 8.75349C11.0597 8.83874 10.8645 8.82546 10.7168 8.71988L8.8541 7.38452C8.79955 7.37 8.78047 7.37436 8.76346 7.39199L7.3927 8.76241C7.36823 8.78667 7.36533 8.82546 7.38565 8.8545L8.72053 10.7161C8.8261 10.8638 8.83958 11.0592 8.75454 11.2195C8.57783 11.5524 8.43347 11.9013 8.32438 12.2566C8.27087 12.4302 8.12361 12.5588 7.9442 12.5885L5.68387 12.9608C5.64944 12.9664 5.62497 12.9958 5.62497 13.0309V14.9692C5.62497 15.0036 5.65027 15.0337 5.68512 15.0393L7.94399 15.4112C8.1234 15.4409 8.27087 15.5693 8.32417 15.7435C8.43306 16.0984 8.57762 16.4477 8.75433 16.7802C8.83958 16.9405 8.82651 17.1359 8.72032 17.2842L7.38503 19.1466C7.36491 19.1742 7.36844 19.2134 7.3925 19.2375L8.76325 20.6083C8.78088 20.6257 8.80204 20.6282 8.81303 20.6282L10.7166 19.2804C10.7994 19.2205 10.8973 19.1904 10.9956 19.1904ZM13.9997 17.3744C12.1386 17.3744 10.6249 15.8601 10.6249 13.9995C10.6249 12.1388 12.1386 10.6248 13.9997 10.6248C15.8607 10.6248 17.3746 12.1388 17.3746 13.9995C17.3746 15.8601 15.8607 17.3744 13.9997 17.3744ZM13.9997 11.5829C12.6671 11.5829 11.583 12.6671 11.583 13.9993C11.583 15.3316 12.6673 16.4162 13.9997 16.4162C15.3325 16.4162 16.4166 15.3316 16.4166 13.9993C16.4164 12.6671 15.3325 11.5829 13.9997 11.5829Z" fill="#5D5D62" stroke="#5D5D62" stroke-width="0.5"/>
</svg>
