<svg width="28" height="28" viewBox="0 0 28 28" fill="none" xmlns="http://www.w3.org/2000/svg">
<path fill-rule="evenodd" clip-rule="evenodd" d="M22.1673 7.58268C22.1673 9.19351 20.8615 10.4993 19.2507 10.4993C18.7989 10.4993 18.3712 10.3967 17.9895 10.2134L11.6256 14.6719C11.653 14.8325 11.6673 14.9976 11.6673 15.166C11.6673 15.3439 11.6514 15.5181 11.6209 15.6872L17.4198 19.3121C17.9203 18.908 18.5572 18.666 19.2507 18.666C20.8615 18.666 22.1673 19.9719 22.1673 21.5827C22.1673 23.1935 20.8615 24.4994 19.2507 24.4994C17.6398 24.4994 16.334 23.1935 16.334 21.5827C16.334 21.3003 16.3741 21.0273 16.449 20.769L10.8022 17.2392C10.2753 17.7607 9.55056 18.0827 8.75065 18.0827C7.13982 18.0827 5.83398 16.7768 5.83398 15.166C5.83398 13.5552 7.13982 12.2493 8.75065 12.2493C9.55631 12.2493 10.2857 12.576 10.8135 13.1041L16.6927 8.98517C16.464 8.56902 16.334 8.09104 16.334 7.58268C16.334 5.97185 17.6398 4.66602 19.2507 4.66602C20.8615 4.66602 22.1673 5.97185 22.1673 7.58268Z" fill="#5D5D62"/>
</svg>
