<svg width="24" height="24" viewBox="0 0 24 24" fill="none" xmlns="http://www.w3.org/2000/svg">
<path fill-rule="evenodd" clip-rule="evenodd" d="M8 4.75C8 4.33579 8.33579 4 8.75 4H15.25C15.6642 4 16 4.33579 16 4.75C16 5.16421 15.6642 5.5 15.25 5.5H8.75C8.33579 5.5 8 5.16421 8 4.75ZM4 7.25C4 6.83579 4.33579 6.5 4.75 6.5H19.25C19.6642 6.5 20 6.83579 20 7.25C20 7.66421 19.6642 8 19.25 8H18.75V17.5C18.75 18.7426 17.7426 19.75 16.5 19.75H8C6.75736 19.75 5.75 18.7426 5.75 17.5V8H4.75C4.33579 8 4 7.66421 4 7.25ZM7.25 8V17.5C7.25 17.9142 7.58579 18.25 8 18.25H16.5C16.9142 18.25 17.25 17.9142 17.25 17.5V8H7.25ZM10.75 9C10.3358 9 10 9.33579 10 9.75V15.25C10 15.6642 10.3358 16 10.75 16C11.1642 16 11.5 15.6642 11.5 15.25V9.75C11.5 9.33579 11.1642 9 10.75 9ZM13 9.75C13 9.33579 13.3358 9 13.75 9C14.1642 9 14.5 9.33579 14.5 9.75V15.25C14.5 15.6642 14.1642 16 13.75 16C13.3358 16 13 15.6642 13 15.25V9.75Z" fill="#5D5D62"/>
</svg>
