<svg width="24" height="24" viewBox="0 0 24 24" fill="none" xmlns="http://www.w3.org/2000/svg">
<path fill-rule="evenodd" clip-rule="evenodd" d="M18 2.5H6C4.61929 2.5 3.5 3.61929 3.5 5V19C3.5 20.3807 4.61929 21.5 6 21.5H18C19.3807 21.5 20.5 20.3807 20.5 19V5C20.5 3.61929 19.3807 2.5 18 2.5ZM5 5C5 4.44772 5.44772 4 6 4H18C18.5523 4 19 4.44772 19 5V19C19 19.5523 18.5523 20 18 20H6C5.44772 20 5 19.5523 5 19V5ZM7.75 6C7.33579 6 7 6.33579 7 6.75C7 7.16421 7.33579 7.5 7.75 7.5H16.25C16.6642 7.5 17 7.16421 17 6.75C17 6.33579 16.6642 6 16.25 6H7.75ZM7 9.75C7 9.33579 7.33579 9 7.75 9H16.25C16.6642 9 17 9.33579 17 9.75C17 10.1642 16.6642 10.5 16.25 10.5H7.75C7.33579 10.5 7 10.1642 7 9.75ZM7.75 12C7.33579 12 7 12.3358 7 12.75C7 13.1642 7.33579 13.5 7.75 13.5H16.25C16.6642 13.5 17 13.1642 17 12.75C17 12.3358 16.6642 12 16.25 12H7.75Z" fill="#2D2D31"/>
</svg>
