<svg width="36" height="36" viewBox="0 0 36 36" fill="none" xmlns="http://www.w3.org/2000/svg">
<g filter="url(#filter0_d_3017_13120)">
<rect x="4" y="5" width="28" height="23" rx="1" fill="#5D5D62"/>
</g>
<path fill-rule="evenodd" clip-rule="evenodd" d="M24.0005 19.5454C25.2278 19.5454 26.2228 18.5279 26.2228 17.2727C26.2228 16.0175 25.2278 15 24.0005 15C22.7732 15 21.7783 16.0175 21.7783 17.2727C21.7783 18.5279 22.7732 19.5454 24.0005 19.5454ZM24 19.5455C21.7909 19.5455 20 21.3363 20 23.5455V24.9999H28V23.5455C28 21.3363 26.2091 19.5455 24 19.5455Z" fill="white"/>
<path d="M18 9C20.2091 9 22 7.20914 22 5C22 2.79086 20.2091 1 18 1C15.7909 1 14 2.79086 14 5C14 7.20914 15.7909 9 18 9Z" fill="#5D5D62" stroke="white" stroke-width="2"/>
<defs>
<filter id="filter0_d_3017_13120" x="0" y="5" width="36" height="31" filterUnits="userSpaceOnUse" color-interpolation-filters="sRGB">
<feFlood flood-opacity="0" result="BackgroundImageFix"/>
<feColorMatrix in="SourceAlpha" type="matrix" values="0 0 0 0 0 0 0 0 0 0 0 0 0 0 0 0 0 0 127 0" result="hardAlpha"/>
<feOffset dy="4"/>
<feGaussianBlur stdDeviation="2"/>
<feComposite in2="hardAlpha" operator="out"/>
<feColorMatrix type="matrix" values="0 0 0 0 0 0 0 0 0 0 0 0 0 0 0 0 0 0 0.25 0"/>
<feBlend mode="normal" in2="BackgroundImageFix" result="effect1_dropShadow_3017_13120"/>
<feBlend mode="normal" in="SourceGraphic" in2="effect1_dropShadow_3017_13120" result="shape"/>
</filter>
</defs>
</svg>
