<svg width="34" height="34" viewBox="0 0 34 34" fill="none" xmlns="http://www.w3.org/2000/svg">
<path fill-rule="evenodd" clip-rule="evenodd" d="M17 16C20.866 16 24 12.866 24 9C24 5.13401 20.866 2 17 2C13.134 2 10 5.13401 10 9C10 12.866 13.134 16 17 16ZM17 16H22C25.3137 16 28 18.6863 28 22V30H6V22C6 18.6863 8.68629 16 12 16H17Z" fill="#5D5D62"/>
<path d="M22 20L23.1803 22.3755L25.8042 22.7639L23.9097 24.6205L24.3511 27.2361L22 26.008L19.6489 27.2361L20.0903 24.6205L18.1958 22.7639L20.8197 22.3755L22 20Z" fill="white"/>
<rect x="6" y="30" width="22" height="2" fill="#2D2D31"/>
</svg>
